{"title":"Naruto Shippuuden 256 mkv 60 mb Bzingaz.mkv","uid":7142322,"size":62844011,"categoryP":"video","categoryS":"tv_shows","magnet":"?xt=urn:btih:b022124fb5bb54d56fec53d4b2c8dcbfc93017ea&amp;dn=Naruto+Shippuuden+256+mkv+60+mb+Bzingaz.mkv&amp;tr=udp%3A%2F%2Ftracker.openbittorrent.com%3A80&amp;tr=udp%3A%2F%2Fopen.demonii.com%3A1337&amp;tr=udp%3A%2F%2Ftracker.coppersurfer.tk%3A6969&amp;tr=udp%3A%2F%2Fexodus.desync.com%3A6969","seeders":0,"leechers":0,"uploader":"bzingaz","files":1,"time":1333043351,"description":"Naruto_Shippuuden_256 Eng Subbed BZINGAZ in mkv format 60 mb size.            \n                                                               \n                              Download**Enjoy**Seed\n\n\n\nScreenshots:\n               &lt;a href=&quot;\nhttp://image.bayimg.com/pangnaadk.jpg&quot; rel=&quot;nofollow&quot; target=&quot;_NEW&quot;&gt;\nhttp://image.bayimg.com/pangnaadk.jpg&lt;/a&gt;\n               &lt;a href=&quot;\nhttp://image.bayimg.com/pangoaadk.jpg&quot; rel=&quot;nofollow&quot; target=&quot;_NEW&quot;&gt;\nhttp://image.bayimg.com/pangoaadk.jpg&lt;/a&gt;\n\n\nDetails are:\n\nFormat                           : Matroska\nFile size                        : 59.9 MiB\nDuration                         : 23mn 9s\nOverall bit rate                 : 362 Kbps\n\n\nVideo\nID                               : 1\nFormat                           : AVC\nFormat/Info                      : Advanced Video Codec\nFormat profile                   : &lt;a class=&quot;__cf_email__&quot; href=&quot;/cdn-cgi/l/email-protection&quot; data-cfemail=&quot;84ccede3ecc4c8b7aab5&quot;&gt;[email&amp;#160;protected]&lt;/a&gt;&lt;script cf-hash='f9e31' type=&quot;text/javascript&quot;&gt;\n/* &lt;![CDATA[ */!function(){try{var t=&quot;currentScript&quot;in document?document.currentScript:function(){for(var t=document.getElementsByTagName(&quot;script&quot;),e=t.length;e--;)if(t[e].getAttribute(&quot;cf-hash&quot;))return t[e]}();if(t&amp;&amp;t.previousSibling){var e,r,n,i,c=t.previousSibling,a=c.getAttribute(&quot;data-cfemail&quot;);if(a){for(e=&quot;&quot;,r=parseInt(a.substr(0,2),16),n=2;a.length-n;n+=2)i=parseInt(a.substr(n,2),16)^r,e+=String.fromCharCode(i);e=document.createTextNode(e),c.parentNode.replaceChild(e,c)}}}catch(u){}}();/* ]]&gt; */&lt;/script&gt;\nFormat settings, CABAC           : Yes\nFormat settings, ReFrames        : 8 frames\nCodec ID                         : V_MPEG4/ISO/AVC\nDuration                         : 23mn 9s\nBit rate                         : 310 Kbps\nWidth                            : 848 pixels\nHeight                           : 480 pixels\nDisplay aspect ratio             : 16:9\nFrame rate mode                  : Variable\nFrame rate                       : 23.976 fps\nColor space                      : YUV\nChroma subsampling               : 4:2:0\nBit depth                        : 8 bits\nScan type                        : Progressive\nBits/(Pixel*Frame)               : 0.032\nStream size                      : 50.8 MiB (85%)\n\n\nAudio\nID                               : 2\nFormat                           : Vorbis\nFormat settings, Floor           : 1\nCodec ID                         : A_VORBIS\nDuration                         : 23mn 9s\nBit rate mode                    : Constant\nBit rate                         : 48.0 Kbps\nChannel(s)                       : 2 channels\nSampling rate                    : 44.1 KHz\nCompression mode                 : Lossy\nStream size                      : 7.95 MiB (13%)\nWriting library                  : aoTuV Beta 5 (UTC 2006-10-24)\nLanguage                         : un\n\nText\nID                               : 3\nFormat                           : UTF-8\nCodec ID                         : S_TEXT/UTF8\nCodec ID/Info                    : UTF-8 Plain Text\n","torrent":{"xt":"urn:btih:b022124fb5bb54d56fec53d4b2c8dcbfc93017ea","amp;dn":"Naruto+Shippuuden+256+mkv+60+mb+Bzingaz.mkv","amp;tr":["udp%3A%2F%2Ftracker.openbittorrent.com%3A80","udp%3A%2F%2Fopen.demonii.com%3A1337","udp%3A%2F%2Ftracker.coppersurfer.tk%3A6969","udp%3A%2F%2Fexodus.desync.com%3A6969"],"infoHash":"b022124fb5bb54d56fec53d4b2c8dcbfc93017ea","infoHashBuffer":{"type":"Buffer","data":[176,34,18,79,181,187,84,213,111,236,83,212,178,200,220,191,201,48,23,234]},"announce":[],"urlList":[]}}